# xmcd
#
# Track frame offsets:
#	150
#	13100
#	27325
#	39330
#	53207
#	67047
#	79047
#	91727
#	105112
#	116097
#	129975
#	140487
#	151942
#	164327
#	178570
#	197040
#
# Disc length: 2879 seconds
#
# Revision: 0
# Processed by: cddbd v1.5.2PL0 Copyright (c) Steve Scherf et al.
# Submitted via: dBpowerAMP V4.0
#
DISCID=c70b3d10
DTITLE=Easter  Brothers - Favorites
DYEAR=1900
DGENRE=Country Gospel
TTITLE0=They're Holding Up the Ladder
TTITLE1=The Last Hill
TTITLE2=I'm Holding To His Hand
TTITLE3=Jesus Died That I Might Live For Him
TTITLE4=Standing On the Banks
TTITLE5=I'd Like To Be the One
TTITLE6=Poor Rich Man
TTITLE7=He's Coming Down and I'm Going Up
TTITLE8=An Empty Grave
TTITLE9=Lord, I'll Be Praising You
TTITLE10=While On His Way To the Cross
TTITLE11=I Traded the Whole World For the Bible
TTITLE12=I'm On the Last Mile
TTITLE13=Heart That Will Never Break Again
TTITLE14=Daddy's Favorite Song
TTITLE15=Thank You Lord [For Your Blessings On Me]
EXTD=Actual Genre:  Country Gospel\n\nSubmitted by Rich Price
EXTT0=
EXTT1=
EXTT2=
EXTT3=
EXTT4=
EXTT5=
EXTT6=
EXTT7=
EXTT8=
EXTT9=
EXTT10=
EXTT11=
EXTT12=
EXTT13=
EXTT14=
EXTT15=
PLAYORDER=
